<svg width="61" height="60" viewBox="0 0 61 60" fill="none" xmlns="http://www.w3.org/2000/svg">
<rect width="61" height="60" rx="30" fill="#EF4444"/>
<g clip-path="url(#clip0_0_1)">
<path d="M31 20C33.2902 19.9968 35.5116 20.7829 37.29 22.226C37.4023 22.317 37.4936 22.4312 37.5575 22.5608C37.6214 22.6904 37.6565 22.8323 37.6603 22.9768C37.6641 23.1213 37.6365 23.2648 37.5795 23.3976C37.5225 23.5304 37.4374 23.6493 37.33 23.746L35.82 25.108C35.6485 25.2625 35.4288 25.3528 35.1982 25.3638C34.9676 25.3747 34.7404 25.3055 34.555 25.168C33.5382 24.4207 32.3118 24.013 31.05 24.0028C29.7882 23.9927 28.5553 24.3806 27.5266 25.1114C26.4979 25.8422 25.7259 26.8788 25.3202 28.0736C24.9145 29.2685 24.8958 30.5608 25.2669 31.7669C25.6379 32.9729 26.3797 34.0313 27.3869 34.7915C28.394 35.5517 29.6152 35.9751 30.8767 36.0013C32.1383 36.0276 33.3761 35.6555 34.414 34.9378C35.4519 34.2202 36.2371 33.1936 36.658 32.004L36.659 32H32.999C32.7542 31.9997 32.5181 31.9097 32.3353 31.747C32.1524 31.5842 32.0356 31.3601 32.007 31.117L32 31V29C32 28.7348 32.1054 28.4804 32.2929 28.2929C32.4804 28.1054 32.7348 28 33 28H39.945C40.1912 28 40.4287 28.0908 40.6121 28.255C40.7955 28.4192 40.9119 28.6453 40.939 28.89C40.979 29.257 41 29.627 41 30C41 35.523 36.523 40 31 40C25.477 40 21 35.523 21 30C21 24.477 25.477 20 31 20Z" fill="#F5F5F5"/>
</g>
<defs>
<clipPath id="clip0_0_1">
<rect width="24" height="24" fill="white" transform="translate(19 18)"/>
</clipPath>
</defs>
</svg>
