<svg width="162" height="129" viewBox="0 0 162 129" fill="none" xmlns="http://www.w3.org/2000/svg">
<g clip-path="url(#clip0_2_176)">
<path d="M100.475 60.0382C100.475 60.0382 100.469 60.0382 100.466 60.0413C100.454 60.0567 100.444 60.069 100.444 60.069C100.444 60.069 100.463 60.0505 100.478 60.0382H100.475Z" fill="#0071BD"/>
<path d="M116.625 11.5402L116.546 9.85802L115.087 9.01399C108.608 5.26142 97.9358 0.661873 83.9048 0.0648733C66.2801 -0.685052 52.9844 5.3467 46.6262 9.01105L45.1616 9.85508L45.0822 11.5431C44.794 17.6896 45.2557 23.8684 46.4497 29.909C48.3172 39.358 51.4698 47.4396 55.8223 53.9301C61.1424 61.8705 68.474 65.7201 76.238 69.7991L77.3643 70.3903C78.4407 70.9579 79.6464 71.2402 80.8551 71.2402C82.0638 71.2402 83.2696 70.9579 84.346 70.3903C87.4868 68.7375 90.8189 66.9818 94.0362 64.9055C93.2216 65.4319 87.481 63.0969 86.4252 62.5793C83.646 61.2176 81.6933 58.9443 79.8552 56.5005C77.7202 53.6596 74.3587 49.1865 73.8411 42.7989C73.2147 35.0849 78.3936 24.4566 87.2869 24.3625C90.6306 24.3272 93.0628 26.1329 93.9744 26.8946C94.1127 25.8711 94.392 22.7979 92.5569 19.7394C89.766 15.0869 84.5018 14.4899 83.8901 14.4282C83.4343 13.2989 82.2991 10.9344 79.7758 9.03457C78.0466 7.73176 76.3379 7.15829 75.2528 6.88773C81.2257 6.3319 89.8748 6.32308 99.6327 9.19632C103.832 10.4315 107.47 11.9755 110.523 13.5282C110.637 18.613 110.196 23.7096 109.208 28.7062C107.261 38.5434 104.115 46.2868 99.8474 51.7245C97.2506 55.0359 93.8774 57.6798 90.3013 59.956C91.3953 60.3442 92.9716 60.7677 94.8979 60.8441C97.3006 60.9383 99.2445 60.456 100.471 60.0442C100.765 59.7148 104.362 55.9799 104.706 55.5417C109.576 49.3335 113.128 40.7079 115.266 29.909C116.46 23.8684 116.922 17.6896 116.634 11.5431L116.625 11.5402ZM57.1281 27.5916C54.9901 31.3706 54.7724 34.982 54.7901 36.7818C54.299 34.6144 53.8078 32.444 53.3138 30.2766C53.4784 29.4414 53.7931 28.4356 54.4019 27.4063C56.434 23.9566 60.1513 22.9773 61.1395 22.7479C59.9778 23.7361 58.4221 25.3094 57.1281 27.5945V27.5916ZM73.8353 61.1765C71.9766 60.3413 68.0299 58.2209 65.8155 53.8243C62.5775 47.4014 64.3744 38.7787 70.4944 32.4352C69.4033 34.6673 67.3506 39.6345 67.8211 46.1368C68.3917 53.9978 72.3001 59.2943 73.8353 61.1765ZM78.6936 13.9782C79.5376 14.2076 80.2376 14.5252 80.7875 14.8311C79.6906 15.4134 78.5907 15.9956 77.4937 16.5779L74.1529 13.887C75.1145 13.6782 76.7761 13.4606 78.6936 13.9811V13.9782Z" fill="#EF4444"/>
<path d="M101.189 12.6605L102.918 17.6336L108.182 17.7394L103.986 20.9215L105.509 25.9592L101.189 22.9536L96.8656 25.9592L98.392 20.9215L94.1953 17.7394L99.4595 17.6336L101.189 12.6605Z" fill="#EF4444"/>
<path d="M100.483 28.806L101.256 31.0293L103.609 31.0793L101.732 32.4997L102.415 34.7554L100.483 33.4085L98.5504 34.7554L99.2327 32.4997L97.3564 31.0793L99.7092 31.0293L100.483 28.806Z" fill="#EF4444"/>
<path d="M97.3565 37.8021L97.7418 38.9138L98.9181 38.9373L97.98 39.649L98.3212 40.7754L97.3565 40.1019L96.389 40.7754L96.7301 39.649L95.792 38.9373L96.9683 38.9138L97.3565 37.8021Z" fill="#EF4444"/>
</g>
<path d="M22.2485 98.125V91.05L25.1485 89.375H31.4735L34.3735 91.05V94.375H30.8735V92.375H25.7485V96.55H31.4735L34.3735 98.225V105.45L31.4735 107.125H24.8985L21.9985 105.45V102.125H25.4985V104.125H30.8735V99.8H25.1485L22.2485 98.125ZM64.5337 101.875H68.0337V105.45L65.1337 107.125H58.0587L55.1587 105.45V91.05L58.0587 89.375H65.1337L68.0337 91.05V94.625H64.5337V92.375H58.6587V104.125H64.5337V101.875ZM82.1538 89.5H85.6538V105.45L82.7538 107.125H74.9288L72.0288 105.45V89.5H75.5288V103.875H82.1538V89.5ZM103.175 107H99.3249L95.5749 100.4H93.3999V107H89.8999V89.5H99.3749L102.275 91.175V98.725L99.3749 100.4L103.175 107ZM93.3999 92.5V97.4H98.7749V92.5H93.3999ZM106.526 107V89.5H110.026V107H106.526ZM120.99 92.5V107H117.49V92.5H112.765V89.5H125.715V92.5H120.99ZM132.349 107V99.525L126.724 89.5H130.524L134.074 96.05H134.124L137.699 89.5H141.499L135.849 99.55V107H132.349Z" fill="#F5F5F5"/>
<path d="M48.0054 107.125H41.5304L38.6304 105.45V101.875H42.1304V104.125H47.4054V99.45H43.0304V96.45H47.4054V92.375H42.1304V94.625H38.6304V91.05L41.5304 89.375H48.0054L50.9054 91.05V96.675L48.7304 97.925V97.975L50.9054 99.225V105.45L48.0054 107.125Z" fill="#EF4444"/>
<defs>
<clipPath id="clip0_2_176">
<rect width="71.7105" height="71.24" fill="white" transform="translate(45)"/>
</clipPath>
</defs>
</svg>
